<mxfile host="65bd71144e">
    <diagram id="joFSQwPKd1pgUaN3gR4A" name="ページ1">
        <mxGraphModel dx="1009" dy="719" grid="1" gridSize="10" guides="1" tooltips="1" connect="1" arrows="1" fold="1" page="1" pageScale="1" pageWidth="827" pageHeight="1169" math="0" shadow="0">
            <root>
                <mxCell id="0"/>
                <mxCell id="1" parent="0"/>
                <mxCell id="2" value="" style="rounded=0;whiteSpace=wrap;html=1;" parent="1" vertex="1">
                    <mxGeometry x="80" y="110" width="200" height="250" as="geometry"/>
                </mxCell>
                <mxCell id="3" value="監視開始" style="rounded=1;whiteSpace=wrap;html=1;fillColor=#dae8fc;strokeColor=#6c8ebf;" parent="1" vertex="1">
                    <mxGeometry x="120" y="160" width="120" height="40" as="geometry"/>
                </mxCell>
                <mxCell id="4" value="設定" style="rounded=1;whiteSpace=wrap;html=1;fillColor=#ffe6cc;strokeColor=#d79b00;" parent="1" vertex="1">
                    <mxGeometry x="120" y="260" width="120" height="40" as="geometry"/>
                </mxCell>
                <mxCell id="40" value="" style="rounded=0;whiteSpace=wrap;html=1;" parent="1" vertex="1">
                    <mxGeometry x="360" y="110" width="200" height="45" as="geometry"/>
                </mxCell>
                <mxCell id="41" value="監視中......" style="text;html=1;strokeColor=none;fillColor=none;align=center;verticalAlign=middle;whiteSpace=wrap;rounded=0;" parent="1" vertex="1">
                    <mxGeometry x="405" y="117.5" width="110" height="30" as="geometry"/>
                </mxCell>
                <mxCell id="mRTNBz1axSE0XRf-Ghjh-41" value="&lt;font style=&quot;font-size: 15px&quot;&gt;起動画面&lt;/font&gt;" style="text;html=1;strokeColor=none;fillColor=none;align=center;verticalAlign=middle;whiteSpace=wrap;rounded=0;" parent="1" vertex="1">
                    <mxGeometry x="30" y="70" width="110" height="30" as="geometry"/>
                </mxCell>
                <mxCell id="mRTNBz1axSE0XRf-Ghjh-42" value="&lt;font style=&quot;font-size: 15px&quot;&gt;実行中画面&lt;/font&gt;" style="text;html=1;strokeColor=none;fillColor=none;align=center;verticalAlign=middle;whiteSpace=wrap;rounded=0;" parent="1" vertex="1">
                    <mxGeometry x="320" y="70" width="110" height="30" as="geometry"/>
                </mxCell>
            </root>
        </mxGraphModel>
    </diagram>
    <diagram id="bGEK2ODulcbfgAPES69J" name="ページ2">
        <mxGraphModel dx="776" dy="669" grid="1" gridSize="10" guides="1" tooltips="1" connect="1" arrows="1" fold="1" page="1" pageScale="1" pageWidth="827" pageHeight="1169" math="0" shadow="0">
            <root>
                <mxCell id="CDdQbXF60Y6zYo539mXS-0"/>
                <mxCell id="CDdQbXF60Y6zYo539mXS-1" parent="CDdQbXF60Y6zYo539mXS-0"/>
                <mxCell id="g7K7pdbXOW3chDNbEAsn-0" value="" style="rounded=0;whiteSpace=wrap;html=1;" parent="CDdQbXF60Y6zYo539mXS-1" vertex="1">
                    <mxGeometry x="440" y="110" width="240" height="280" as="geometry"/>
                </mxCell>
                <mxCell id="g7K7pdbXOW3chDNbEAsn-1" value="監視開始" style="rounded=1;whiteSpace=wrap;html=1;fillColor=#dae8fc;strokeColor=#6c8ebf;" parent="CDdQbXF60Y6zYo539mXS-1" vertex="1">
                    <mxGeometry x="500" y="330" width="120" height="40" as="geometry"/>
                </mxCell>
                <mxCell id="g7K7pdbXOW3chDNbEAsn-2" value="通知音の鳴る秒数" style="text;html=1;strokeColor=none;fillColor=none;align=center;verticalAlign=middle;whiteSpace=wrap;rounded=0;" parent="CDdQbXF60Y6zYo539mXS-1" vertex="1">
                    <mxGeometry x="460" y="130" width="110" height="30" as="geometry"/>
                </mxCell>
                <mxCell id="g7K7pdbXOW3chDNbEAsn-3" value="音量テスト" style="text;html=1;strokeColor=none;fillColor=none;align=center;verticalAlign=middle;whiteSpace=wrap;rounded=0;" parent="CDdQbXF60Y6zYo539mXS-1" vertex="1">
                    <mxGeometry x="460" y="185" width="80" height="30" as="geometry"/>
                </mxCell>
                <mxCell id="g7K7pdbXOW3chDNbEAsn-4" value="&lt;b&gt;| |&lt;/b&gt;" style="rounded=1;whiteSpace=wrap;html=1;" parent="CDdQbXF60Y6zYo539mXS-1" vertex="1">
                    <mxGeometry x="605" y="180" width="50" height="40" as="geometry"/>
                </mxCell>
                <mxCell id="g7K7pdbXOW3chDNbEAsn-5" value="自動再起動" style="text;html=1;strokeColor=none;fillColor=none;align=center;verticalAlign=middle;whiteSpace=wrap;rounded=0;" parent="CDdQbXF60Y6zYo539mXS-1" vertex="1">
                    <mxGeometry x="460" y="235" width="80" height="30" as="geometry"/>
                </mxCell>
                <mxCell id="g7K7pdbXOW3chDNbEAsn-6" value="5" style="rounded=0;whiteSpace=wrap;html=1;" parent="CDdQbXF60Y6zYo539mXS-1" vertex="1">
                    <mxGeometry x="605" y="130" width="35" height="30" as="geometry"/>
                </mxCell>
                <mxCell id="g7K7pdbXOW3chDNbEAsn-7" value="秒" style="text;html=1;strokeColor=none;fillColor=none;align=center;verticalAlign=middle;whiteSpace=wrap;rounded=0;" parent="CDdQbXF60Y6zYo539mXS-1" vertex="1">
                    <mxGeometry x="640" y="130" width="26" height="30" as="geometry"/>
                </mxCell>
                <mxCell id="g7K7pdbXOW3chDNbEAsn-8" value="ON" style="rounded=1;whiteSpace=wrap;html=1;" parent="CDdQbXF60Y6zYo539mXS-1" vertex="1">
                    <mxGeometry x="605" y="240" width="50" height="30" as="geometry"/>
                </mxCell>
                <mxCell id="g7K7pdbXOW3chDNbEAsn-9" value="C:\Users" style="rounded=0;whiteSpace=wrap;html=1;align=left;" parent="CDdQbXF60Y6zYo539mXS-1" vertex="1">
                    <mxGeometry x="520" y="290" width="146" height="20" as="geometry"/>
                </mxCell>
                <mxCell id="g7K7pdbXOW3chDNbEAsn-10" value="パス" style="text;html=1;strokeColor=none;fillColor=none;align=center;verticalAlign=middle;whiteSpace=wrap;rounded=0;" parent="CDdQbXF60Y6zYo539mXS-1" vertex="1">
                    <mxGeometry x="460" y="290" width="50" height="20" as="geometry"/>
                </mxCell>
                <mxCell id="g7K7pdbXOW3chDNbEAsn-11" value="" style="rounded=0;whiteSpace=wrap;html=1;" parent="CDdQbXF60Y6zYo539mXS-1" vertex="1">
                    <mxGeometry x="110" y="110" width="240" height="280" as="geometry"/>
                </mxCell>
                <mxCell id="g7K7pdbXOW3chDNbEAsn-12" value="監視開始" style="rounded=1;whiteSpace=wrap;html=1;fillColor=#dae8fc;strokeColor=#6c8ebf;" parent="CDdQbXF60Y6zYo539mXS-1" vertex="1">
                    <mxGeometry x="170" y="330" width="120" height="40" as="geometry"/>
                </mxCell>
                <mxCell id="g7K7pdbXOW3chDNbEAsn-13" value="通知音の鳴る秒数" style="text;html=1;strokeColor=none;fillColor=none;align=center;verticalAlign=middle;whiteSpace=wrap;rounded=0;" parent="CDdQbXF60Y6zYo539mXS-1" vertex="1">
                    <mxGeometry x="130" y="130" width="110" height="30" as="geometry"/>
                </mxCell>
                <mxCell id="g7K7pdbXOW3chDNbEAsn-14" value="音量テスト" style="text;html=1;strokeColor=none;fillColor=none;align=center;verticalAlign=middle;whiteSpace=wrap;rounded=0;" parent="CDdQbXF60Y6zYo539mXS-1" vertex="1">
                    <mxGeometry x="130" y="185" width="80" height="30" as="geometry"/>
                </mxCell>
                <mxCell id="g7K7pdbXOW3chDNbEAsn-15" value="▶" style="rounded=1;whiteSpace=wrap;html=1;" parent="CDdQbXF60Y6zYo539mXS-1" vertex="1">
                    <mxGeometry x="275" y="180" width="50" height="40" as="geometry"/>
                </mxCell>
                <mxCell id="g7K7pdbXOW3chDNbEAsn-16" value="自動再起動" style="text;html=1;strokeColor=none;fillColor=none;align=center;verticalAlign=middle;whiteSpace=wrap;rounded=0;" parent="CDdQbXF60Y6zYo539mXS-1" vertex="1">
                    <mxGeometry x="130" y="235" width="80" height="30" as="geometry"/>
                </mxCell>
                <mxCell id="g7K7pdbXOW3chDNbEAsn-17" value="5" style="rounded=0;whiteSpace=wrap;html=1;" parent="CDdQbXF60Y6zYo539mXS-1" vertex="1">
                    <mxGeometry x="275" y="130" width="35" height="30" as="geometry"/>
                </mxCell>
                <mxCell id="g7K7pdbXOW3chDNbEAsn-18" value="秒" style="text;html=1;strokeColor=none;fillColor=none;align=center;verticalAlign=middle;whiteSpace=wrap;rounded=0;" parent="CDdQbXF60Y6zYo539mXS-1" vertex="1">
                    <mxGeometry x="310" y="130" width="26" height="30" as="geometry"/>
                </mxCell>
                <mxCell id="g7K7pdbXOW3chDNbEAsn-19" value="ON" style="rounded=1;whiteSpace=wrap;html=1;" parent="CDdQbXF60Y6zYo539mXS-1" vertex="1">
                    <mxGeometry x="275" y="240" width="50" height="30" as="geometry"/>
                </mxCell>
                <mxCell id="g7K7pdbXOW3chDNbEAsn-20" value="&lt;span&gt;C:\Users&lt;/span&gt;" style="rounded=0;whiteSpace=wrap;html=1;align=left;" parent="CDdQbXF60Y6zYo539mXS-1" vertex="1">
                    <mxGeometry x="190" y="290" width="146" height="20" as="geometry"/>
                </mxCell>
                <mxCell id="g7K7pdbXOW3chDNbEAsn-21" value="パス" style="text;html=1;strokeColor=none;fillColor=none;align=center;verticalAlign=middle;whiteSpace=wrap;rounded=0;" parent="CDdQbXF60Y6zYo539mXS-1" vertex="1">
                    <mxGeometry x="130" y="290" width="50" height="20" as="geometry"/>
                </mxCell>
                <mxCell id="g7K7pdbXOW3chDNbEAsn-22" value="" style="rounded=0;whiteSpace=wrap;html=1;" parent="CDdQbXF60Y6zYo539mXS-1" vertex="1">
                    <mxGeometry x="440" y="450" width="240" height="280" as="geometry"/>
                </mxCell>
                <mxCell id="g7K7pdbXOW3chDNbEAsn-23" value="監視開始" style="rounded=1;whiteSpace=wrap;html=1;fillColor=#dae8fc;strokeColor=#6c8ebf;" parent="CDdQbXF60Y6zYo539mXS-1" vertex="1">
                    <mxGeometry x="500" y="670" width="120" height="40" as="geometry"/>
                </mxCell>
                <mxCell id="g7K7pdbXOW3chDNbEAsn-24" value="通知音の鳴る秒数" style="text;html=1;strokeColor=none;fillColor=none;align=center;verticalAlign=middle;whiteSpace=wrap;rounded=0;" parent="CDdQbXF60Y6zYo539mXS-1" vertex="1">
                    <mxGeometry x="460" y="470" width="110" height="30" as="geometry"/>
                </mxCell>
                <mxCell id="g7K7pdbXOW3chDNbEAsn-25" value="音量テスト" style="text;html=1;strokeColor=none;fillColor=none;align=center;verticalAlign=middle;whiteSpace=wrap;rounded=0;" parent="CDdQbXF60Y6zYo539mXS-1" vertex="1">
                    <mxGeometry x="460" y="525" width="80" height="30" as="geometry"/>
                </mxCell>
                <mxCell id="g7K7pdbXOW3chDNbEAsn-26" value="▶" style="rounded=1;whiteSpace=wrap;html=1;" parent="CDdQbXF60Y6zYo539mXS-1" vertex="1">
                    <mxGeometry x="605" y="520" width="50" height="40" as="geometry"/>
                </mxCell>
                <mxCell id="g7K7pdbXOW3chDNbEAsn-27" value="自動再起動" style="text;html=1;strokeColor=none;fillColor=none;align=center;verticalAlign=middle;whiteSpace=wrap;rounded=0;" parent="CDdQbXF60Y6zYo539mXS-1" vertex="1">
                    <mxGeometry x="460" y="575" width="80" height="30" as="geometry"/>
                </mxCell>
                <mxCell id="g7K7pdbXOW3chDNbEAsn-28" value="5" style="rounded=0;whiteSpace=wrap;html=1;" parent="CDdQbXF60Y6zYo539mXS-1" vertex="1">
                    <mxGeometry x="605" y="470" width="35" height="30" as="geometry"/>
                </mxCell>
                <mxCell id="g7K7pdbXOW3chDNbEAsn-29" value="秒" style="text;html=1;strokeColor=none;fillColor=none;align=center;verticalAlign=middle;whiteSpace=wrap;rounded=0;" parent="CDdQbXF60Y6zYo539mXS-1" vertex="1">
                    <mxGeometry x="640" y="470" width="26" height="30" as="geometry"/>
                </mxCell>
                <mxCell id="g7K7pdbXOW3chDNbEAsn-30" value="OFF" style="rounded=1;whiteSpace=wrap;html=1;" parent="CDdQbXF60Y6zYo539mXS-1" vertex="1">
                    <mxGeometry x="605" y="580" width="50" height="30" as="geometry"/>
                </mxCell>
                <mxCell id="g7K7pdbXOW3chDNbEAsn-31" value="&lt;font color=&quot;#999999&quot;&gt;C:\Users&lt;/font&gt;" style="rounded=0;whiteSpace=wrap;html=1;fillColor=#CCCCCC;align=left;" parent="CDdQbXF60Y6zYo539mXS-1" vertex="1">
                    <mxGeometry x="520" y="630" width="146" height="20" as="geometry"/>
                </mxCell>
                <mxCell id="g7K7pdbXOW3chDNbEAsn-32" value="パス" style="text;html=1;strokeColor=none;fillColor=none;align=center;verticalAlign=middle;whiteSpace=wrap;rounded=0;fontColor=#CCCCCC;" parent="CDdQbXF60Y6zYo539mXS-1" vertex="1">
                    <mxGeometry x="460" y="630" width="50" height="20" as="geometry"/>
                </mxCell>
                <mxCell id="Qb68iTEdEVpjYVNA_AmT-0" value="&lt;font style=&quot;font-size: 15px&quot;&gt;設定画面&lt;/font&gt;" style="text;html=1;strokeColor=none;fillColor=none;align=center;verticalAlign=middle;whiteSpace=wrap;rounded=0;" parent="CDdQbXF60Y6zYo539mXS-1" vertex="1">
                    <mxGeometry x="50" y="70" width="110" height="30" as="geometry"/>
                </mxCell>
                <mxCell id="Qb68iTEdEVpjYVNA_AmT-1" value="&lt;font style=&quot;font-size: 15px&quot;&gt;音量テスト実行画面&lt;/font&gt;" style="text;html=1;strokeColor=none;fillColor=none;align=center;verticalAlign=middle;whiteSpace=wrap;rounded=0;" parent="CDdQbXF60Y6zYo539mXS-1" vertex="1">
                    <mxGeometry x="380" y="70" width="170" height="30" as="geometry"/>
                </mxCell>
                <mxCell id="Qb68iTEdEVpjYVNA_AmT-2" value="&lt;font style=&quot;font-size: 15px&quot;&gt;タスク自動再起動OFF画面&lt;/font&gt;" style="text;html=1;strokeColor=none;fillColor=none;align=center;verticalAlign=middle;whiteSpace=wrap;rounded=0;" parent="CDdQbXF60Y6zYo539mXS-1" vertex="1">
                    <mxGeometry x="380" y="410" width="200" height="30" as="geometry"/>
                </mxCell>
            </root>
        </mxGraphModel>
    </diagram>
    <diagram id="3YhLQCJyA7DAbaMctfV1" name="ページ3">
        <mxGraphModel dx="830" dy="719" grid="1" gridSize="10" guides="1" tooltips="1" connect="1" arrows="1" fold="1" page="1" pageScale="1" pageWidth="827" pageHeight="1169" math="0" shadow="0">
            <root>
                <mxCell id="rr9I-6KRa5dokksQtBhD-0"/>
                <mxCell id="rr9I-6KRa5dokksQtBhD-1" parent="rr9I-6KRa5dokksQtBhD-0"/>
                <mxCell id="2t9ezWTVsAAYpFk83tRK-0" value="" style="rounded=0;whiteSpace=wrap;html=1;" vertex="1" parent="rr9I-6KRa5dokksQtBhD-1">
                    <mxGeometry x="260" y="270" width="200" height="170" as="geometry"/>
                </mxCell>
                <mxCell id="2t9ezWTVsAAYpFk83tRK-1" value="監視対象が終了しました" style="text;html=1;strokeColor=none;fillColor=none;align=center;verticalAlign=middle;whiteSpace=wrap;rounded=0;" vertex="1" parent="rr9I-6KRa5dokksQtBhD-1">
                    <mxGeometry x="267.5" y="280" width="185" height="30" as="geometry"/>
                </mxCell>
                <mxCell id="2t9ezWTVsAAYpFk83tRK-2" value="&lt;font style=&quot;font-size: 15px&quot;&gt;タスク終了画面&lt;/font&gt;" style="text;html=1;strokeColor=none;fillColor=none;align=center;verticalAlign=middle;whiteSpace=wrap;rounded=0;" vertex="1" parent="rr9I-6KRa5dokksQtBhD-1">
                    <mxGeometry x="220" y="230" width="110" height="30" as="geometry"/>
                </mxCell>
                <mxCell id="2t9ezWTVsAAYpFk83tRK-3" value="20xx. x .x&amp;nbsp; &amp;nbsp;xx : xx : xx" style="text;html=1;strokeColor=none;fillColor=none;align=center;verticalAlign=middle;whiteSpace=wrap;rounded=0;" vertex="1" parent="rr9I-6KRa5dokksQtBhD-1">
                    <mxGeometry x="267.5" y="320" width="185" height="30" as="geometry"/>
                </mxCell>
                <mxCell id="TijNIOm_sAD3zX0PfTGT-0" value="停止" style="rounded=1;whiteSpace=wrap;html=1;fillColor=#ffe6cc;strokeColor=#d79b00;" vertex="1" parent="rr9I-6KRa5dokksQtBhD-1">
                    <mxGeometry x="300" y="380" width="120" height="40" as="geometry"/>
                </mxCell>
            </root>
        </mxGraphModel>
    </diagram>
    <diagram id="47-PMLry1T8wgPwiwFsR" name="ページ4">
        <mxGraphModel dx="1145" dy="649" grid="1" gridSize="10" guides="1" tooltips="1" connect="1" arrows="1" fold="1" page="1" pageScale="1" pageWidth="827" pageHeight="1169" math="0" shadow="0">
            <root>
                <mxCell id="tw3OIPbExxQBJZhRZ05i-0"/>
                <mxCell id="tw3OIPbExxQBJZhRZ05i-1" parent="tw3OIPbExxQBJZhRZ05i-0"/>
                <mxCell id="tw3OIPbExxQBJZhRZ05i-2" value="" style="endArrow=none;html=1;dashed=1;" edge="1" parent="tw3OIPbExxQBJZhRZ05i-1">
                    <mxGeometry width="50" height="50" relative="1" as="geometry">
                        <mxPoint x="160" y="600" as="sourcePoint"/>
                        <mxPoint x="160" y="120" as="targetPoint"/>
                    </mxGeometry>
                </mxCell>
                <mxCell id="tw3OIPbExxQBJZhRZ05i-3" value="ユーザ" style="rounded=0;whiteSpace=wrap;html=1;" vertex="1" parent="tw3OIPbExxQBJZhRZ05i-1">
                    <mxGeometry x="110" y="80" width="100" height="40" as="geometry"/>
                </mxCell>
                <mxCell id="tw3OIPbExxQBJZhRZ05i-4" value="" style="endArrow=none;html=1;fontStyle=1;startArrow=none;dashed=1;" edge="1" parent="tw3OIPbExxQBJZhRZ05i-1" source="tw3OIPbExxQBJZhRZ05i-11">
                    <mxGeometry width="50" height="50" relative="1" as="geometry">
                        <mxPoint x="570" y="800" as="sourcePoint"/>
                        <mxPoint x="570" y="120" as="targetPoint"/>
                    </mxGeometry>
                </mxCell>
                <mxCell id="tw3OIPbExxQBJZhRZ05i-5" value="&lt;span style=&quot;font-weight: normal&quot;&gt;本アプリ&lt;/span&gt;" style="rounded=0;whiteSpace=wrap;html=1;fontStyle=1" vertex="1" parent="tw3OIPbExxQBJZhRZ05i-1">
                    <mxGeometry x="520" y="80" width="100" height="40" as="geometry"/>
                </mxCell>
                <mxCell id="tw3OIPbExxQBJZhRZ05i-6" value="" style="endArrow=none;html=1;startArrow=none;dashed=1;" edge="1" parent="tw3OIPbExxQBJZhRZ05i-1" source="tw3OIPbExxQBJZhRZ05i-9">
                    <mxGeometry width="50" height="50" relative="1" as="geometry">
                        <mxPoint x="364" y="810" as="sourcePoint"/>
                        <mxPoint x="364" y="120" as="targetPoint"/>
                    </mxGeometry>
                </mxCell>
                <mxCell id="tw3OIPbExxQBJZhRZ05i-7" value="監視対象タスク" style="rounded=0;whiteSpace=wrap;html=1;" vertex="1" parent="tw3OIPbExxQBJZhRZ05i-1">
                    <mxGeometry x="314" y="80" width="100" height="40" as="geometry"/>
                </mxCell>
                <mxCell id="tw3OIPbExxQBJZhRZ05i-8" value="" style="rounded=0;whiteSpace=wrap;html=1;rotation=90;" vertex="1" parent="tw3OIPbExxQBJZhRZ05i-1">
                    <mxGeometry x="-41.87" y="354.38" width="403.75" height="15" as="geometry"/>
                </mxCell>
                <mxCell id="tw3OIPbExxQBJZhRZ05i-9" value="" style="rounded=0;whiteSpace=wrap;html=1;rotation=90;" vertex="1" parent="tw3OIPbExxQBJZhRZ05i-1">
                    <mxGeometry x="248.25" y="310.75" width="231.5" height="15" as="geometry"/>
                </mxCell>
                <mxCell id="tw3OIPbExxQBJZhRZ05i-10" value="" style="endArrow=none;html=1;dashed=1;" edge="1" parent="tw3OIPbExxQBJZhRZ05i-1" target="tw3OIPbExxQBJZhRZ05i-9">
                    <mxGeometry width="50" height="50" relative="1" as="geometry">
                        <mxPoint x="364" y="600" as="sourcePoint"/>
                        <mxPoint x="364" y="120" as="targetPoint"/>
                    </mxGeometry>
                </mxCell>
                <mxCell id="tw3OIPbExxQBJZhRZ05i-11" value="" style="rounded=0;whiteSpace=wrap;html=1;rotation=90;" vertex="1" parent="tw3OIPbExxQBJZhRZ05i-1">
                    <mxGeometry x="432.82" y="367.19" width="274.37" height="15" as="geometry"/>
                </mxCell>
                <mxCell id="tw3OIPbExxQBJZhRZ05i-12" value="" style="endArrow=none;html=1;fontStyle=1;dashed=1;" edge="1" parent="tw3OIPbExxQBJZhRZ05i-1" target="tw3OIPbExxQBJZhRZ05i-11">
                    <mxGeometry width="50" height="50" relative="1" as="geometry">
                        <mxPoint x="570" y="600" as="sourcePoint"/>
                        <mxPoint x="570" y="120" as="targetPoint"/>
                    </mxGeometry>
                </mxCell>
                <mxCell id="tw3OIPbExxQBJZhRZ05i-13" value="" style="endArrow=classic;html=1;entryX=0.071;entryY=0.767;entryDx=0;entryDy=0;entryPerimeter=0;" edge="1" parent="tw3OIPbExxQBJZhRZ05i-1">
                    <mxGeometry width="50" height="50" relative="1" as="geometry">
                        <mxPoint x="169" y="213" as="sourcePoint"/>
                        <mxPoint x="359.9949999999999" y="213.19000000000005" as="targetPoint"/>
                    </mxGeometry>
                </mxCell>
                <mxCell id="tw3OIPbExxQBJZhRZ05i-15" value="タスク起動" style="edgeLabel;html=1;align=center;verticalAlign=middle;resizable=0;points=[];" vertex="1" connectable="0" parent="tw3OIPbExxQBJZhRZ05i-13">
                    <mxGeometry x="0.1972" relative="1" as="geometry">
                        <mxPoint x="-23" as="offset"/>
                    </mxGeometry>
                </mxCell>
                <mxCell id="tw3OIPbExxQBJZhRZ05i-14" value="" style="endArrow=classic;html=1;" edge="1" parent="tw3OIPbExxQBJZhRZ05i-1">
                    <mxGeometry width="50" height="50" relative="1" as="geometry">
                        <mxPoint x="169" y="239.9999999999999" as="sourcePoint"/>
                        <mxPoint x="560" y="240" as="targetPoint"/>
                    </mxGeometry>
                </mxCell>
                <mxCell id="tw3OIPbExxQBJZhRZ05i-16" value="アプリ起動" style="edgeLabel;html=1;align=center;verticalAlign=middle;resizable=0;points=[];" vertex="1" connectable="0" parent="tw3OIPbExxQBJZhRZ05i-14">
                    <mxGeometry x="-0.2404" y="1" relative="1" as="geometry">
                        <mxPoint x="133" as="offset"/>
                    </mxGeometry>
                </mxCell>
                <mxCell id="tw3OIPbExxQBJZhRZ05i-17" value="" style="endArrow=classic;html=1;" edge="1" parent="tw3OIPbExxQBJZhRZ05i-1">
                    <mxGeometry width="50" height="50" relative="1" as="geometry">
                        <mxPoint x="560" y="441" as="sourcePoint"/>
                        <mxPoint x="370" y="441" as="targetPoint"/>
                    </mxGeometry>
                </mxCell>
                <mxCell id="tw3OIPbExxQBJZhRZ05i-18" value="タスク終了検知" style="edgeLabel;html=1;align=center;verticalAlign=middle;resizable=0;points=[];" vertex="1" connectable="0" parent="tw3OIPbExxQBJZhRZ05i-17">
                    <mxGeometry x="0.1972" relative="1" as="geometry">
                        <mxPoint x="30" as="offset"/>
                    </mxGeometry>
                </mxCell>
                <mxCell id="tw3OIPbExxQBJZhRZ05i-19" value="" style="endArrow=classic;html=1;" edge="1" parent="tw3OIPbExxQBJZhRZ05i-1">
                    <mxGeometry width="50" height="50" relative="1" as="geometry">
                        <mxPoint x="559" y="470" as="sourcePoint"/>
                        <mxPoint x="169" y="470" as="targetPoint"/>
                    </mxGeometry>
                </mxCell>
                <mxCell id="tw3OIPbExxQBJZhRZ05i-20" value="通知音" style="edgeLabel;html=1;align=center;verticalAlign=middle;resizable=0;points=[];" vertex="1" connectable="0" parent="tw3OIPbExxQBJZhRZ05i-19">
                    <mxGeometry x="0.1972" relative="1" as="geometry">
                        <mxPoint x="-66" as="offset"/>
                    </mxGeometry>
                </mxCell>
                <mxCell id="tw3OIPbExxQBJZhRZ05i-21" value="" style="endArrow=classic;html=1;dashed=1;" edge="1" parent="tw3OIPbExxQBJZhRZ05i-1">
                    <mxGeometry width="50" height="50" relative="1" as="geometry">
                        <mxPoint x="168.5" y="499.9999999999998" as="sourcePoint"/>
                        <mxPoint x="559.5" y="500" as="targetPoint"/>
                    </mxGeometry>
                </mxCell>
                <mxCell id="tw3OIPbExxQBJZhRZ05i-22" value="通知音停止・アプリ終了" style="edgeLabel;html=1;align=center;verticalAlign=middle;resizable=0;points=[];" vertex="1" connectable="0" parent="tw3OIPbExxQBJZhRZ05i-21">
                    <mxGeometry x="-0.2404" y="1" relative="1" as="geometry">
                        <mxPoint x="133" as="offset"/>
                    </mxGeometry>
                </mxCell>
                <mxCell id="tw3OIPbExxQBJZhRZ05i-23" value="" style="shape=cross;whiteSpace=wrap;html=1;size=0.005939696961968366;rotation=45;fillColor=#0A0A0A;" vertex="1" parent="tw3OIPbExxQBJZhRZ05i-1">
                    <mxGeometry x="346.5" y="426.32" width="35" height="35" as="geometry"/>
                </mxCell>
                <mxCell id="tw3OIPbExxQBJZhRZ05i-24" value="" style="shape=cross;whiteSpace=wrap;html=1;size=0.005939696961968366;rotation=45;fillColor=#0A0A0A;" vertex="1" parent="tw3OIPbExxQBJZhRZ05i-1">
                    <mxGeometry x="552.5" y="507.32" width="35" height="35" as="geometry"/>
                </mxCell>
            </root>
        </mxGraphModel>
    </diagram>
</mxfile>